<mxfile host="Electron" modified="2023-11-16T15:53:53.049Z" agent="Mozilla/5.0 (Windows NT 10.0; Win64; x64) AppleWebKit/537.36 (KHTML, like Gecko) draw.io/22.0.3 Chrome/114.0.5735.289 Electron/25.8.4 Safari/537.36" etag="uMgYxj0i_0enrNIFI6jk" version="22.0.3" type="device">
  <diagram name="Page-1" id="3a36QDQokLmaH4JWWq3N">
    <mxGraphModel dx="4200" dy="2484" grid="1" gridSize="10" guides="1" tooltips="1" connect="1" arrows="1" fold="1" page="1" pageScale="1" pageWidth="850" pageHeight="1100" math="0" shadow="0">
      <root>
        <mxCell id="0" />
        <mxCell id="1" parent="0" />
        <mxCell id="NFMwBLK6HkmFKyzKdS0n-3" value="" style="edgeStyle=orthogonalEdgeStyle;rounded=0;orthogonalLoop=1;jettySize=auto;html=1;" edge="1" parent="1" source="NFMwBLK6HkmFKyzKdS0n-1" target="NFMwBLK6HkmFKyzKdS0n-2">
          <mxGeometry relative="1" as="geometry" />
        </mxCell>
        <mxCell id="NFMwBLK6HkmFKyzKdS0n-1" value="start" style="ellipse;whiteSpace=wrap;html=1;" vertex="1" parent="1">
          <mxGeometry x="10" y="10" width="120" height="80" as="geometry" />
        </mxCell>
        <mxCell id="NFMwBLK6HkmFKyzKdS0n-5" value="" style="edgeStyle=orthogonalEdgeStyle;rounded=0;orthogonalLoop=1;jettySize=auto;html=1;" edge="1" parent="1" source="NFMwBLK6HkmFKyzKdS0n-2" target="NFMwBLK6HkmFKyzKdS0n-4">
          <mxGeometry relative="1" as="geometry" />
        </mxCell>
        <mxCell id="NFMwBLK6HkmFKyzKdS0n-2" value="output menu" style="shape=parallelogram;perimeter=parallelogramPerimeter;whiteSpace=wrap;html=1;fixedSize=1;" vertex="1" parent="1">
          <mxGeometry x="10" y="120" width="120" height="60" as="geometry" />
        </mxCell>
        <mxCell id="NFMwBLK6HkmFKyzKdS0n-7" value="" style="edgeStyle=orthogonalEdgeStyle;rounded=0;orthogonalLoop=1;jettySize=auto;html=1;" edge="1" parent="1" source="NFMwBLK6HkmFKyzKdS0n-4" target="NFMwBLK6HkmFKyzKdS0n-6">
          <mxGeometry relative="1" as="geometry" />
        </mxCell>
        <mxCell id="NFMwBLK6HkmFKyzKdS0n-20" value="" style="edgeStyle=orthogonalEdgeStyle;rounded=0;orthogonalLoop=1;jettySize=auto;html=1;" edge="1" parent="1" source="NFMwBLK6HkmFKyzKdS0n-4" target="NFMwBLK6HkmFKyzKdS0n-19">
          <mxGeometry relative="1" as="geometry" />
        </mxCell>
        <mxCell id="NFMwBLK6HkmFKyzKdS0n-4" value="case 1" style="rhombus;whiteSpace=wrap;html=1;" vertex="1" parent="1">
          <mxGeometry x="30" y="220" width="80" height="80" as="geometry" />
        </mxCell>
        <mxCell id="NFMwBLK6HkmFKyzKdS0n-9" value="" style="edgeStyle=orthogonalEdgeStyle;rounded=0;orthogonalLoop=1;jettySize=auto;html=1;" edge="1" parent="1" source="NFMwBLK6HkmFKyzKdS0n-6">
          <mxGeometry relative="1" as="geometry">
            <mxPoint x="330" y="260" as="targetPoint" />
          </mxGeometry>
        </mxCell>
        <mxCell id="NFMwBLK6HkmFKyzKdS0n-6" value="i&amp;lt;n" style="rhombus;whiteSpace=wrap;html=1;" vertex="1" parent="1">
          <mxGeometry x="190" y="220" width="80" height="80" as="geometry" />
        </mxCell>
        <mxCell id="NFMwBLK6HkmFKyzKdS0n-12" value="" style="edgeStyle=orthogonalEdgeStyle;rounded=0;orthogonalLoop=1;jettySize=auto;html=1;" edge="1" parent="1" source="NFMwBLK6HkmFKyzKdS0n-10">
          <mxGeometry relative="1" as="geometry">
            <mxPoint x="470" y="260" as="targetPoint" />
          </mxGeometry>
        </mxCell>
        <mxCell id="NFMwBLK6HkmFKyzKdS0n-10" value="j&amp;lt;m" style="rhombus;whiteSpace=wrap;html=1;" vertex="1" parent="1">
          <mxGeometry x="330" y="220" width="80" height="80" as="geometry" />
        </mxCell>
        <mxCell id="NFMwBLK6HkmFKyzKdS0n-16" value="" style="edgeStyle=orthogonalEdgeStyle;rounded=0;orthogonalLoop=1;jettySize=auto;html=1;" edge="1" parent="1" source="NFMwBLK6HkmFKyzKdS0n-13" target="NFMwBLK6HkmFKyzKdS0n-15">
          <mxGeometry relative="1" as="geometry" />
        </mxCell>
        <mxCell id="NFMwBLK6HkmFKyzKdS0n-13" value="input a[i][j]" style="shape=parallelogram;perimeter=parallelogramPerimeter;whiteSpace=wrap;html=1;fixedSize=1;" vertex="1" parent="1">
          <mxGeometry x="460" y="230" width="120" height="60" as="geometry" />
        </mxCell>
        <mxCell id="NFMwBLK6HkmFKyzKdS0n-17" style="edgeStyle=orthogonalEdgeStyle;rounded=0;orthogonalLoop=1;jettySize=auto;html=1;entryX=0.5;entryY=0;entryDx=0;entryDy=0;" edge="1" parent="1" source="NFMwBLK6HkmFKyzKdS0n-15" target="NFMwBLK6HkmFKyzKdS0n-6">
          <mxGeometry relative="1" as="geometry">
            <Array as="points">
              <mxPoint x="720" y="150" />
              <mxPoint x="230" y="150" />
            </Array>
          </mxGeometry>
        </mxCell>
        <mxCell id="NFMwBLK6HkmFKyzKdS0n-18" style="edgeStyle=orthogonalEdgeStyle;rounded=0;orthogonalLoop=1;jettySize=auto;html=1;entryX=0.5;entryY=1;entryDx=0;entryDy=0;" edge="1" parent="1" source="NFMwBLK6HkmFKyzKdS0n-15" target="NFMwBLK6HkmFKyzKdS0n-10">
          <mxGeometry relative="1" as="geometry">
            <Array as="points">
              <mxPoint x="720" y="340" />
              <mxPoint x="370" y="340" />
            </Array>
          </mxGeometry>
        </mxCell>
        <mxCell id="NFMwBLK6HkmFKyzKdS0n-174" style="edgeStyle=orthogonalEdgeStyle;rounded=0;orthogonalLoop=1;jettySize=auto;html=1;" edge="1" parent="1" source="NFMwBLK6HkmFKyzKdS0n-15">
          <mxGeometry relative="1" as="geometry">
            <mxPoint x="2180" y="480" as="targetPoint" />
          </mxGeometry>
        </mxCell>
        <mxCell id="NFMwBLK6HkmFKyzKdS0n-15" value="i++&lt;br&gt;j++" style="whiteSpace=wrap;html=1;" vertex="1" parent="1">
          <mxGeometry x="660" y="230" width="120" height="60" as="geometry" />
        </mxCell>
        <mxCell id="NFMwBLK6HkmFKyzKdS0n-30" value="" style="edgeStyle=orthogonalEdgeStyle;rounded=0;orthogonalLoop=1;jettySize=auto;html=1;" edge="1" parent="1" source="NFMwBLK6HkmFKyzKdS0n-19" target="NFMwBLK6HkmFKyzKdS0n-22">
          <mxGeometry relative="1" as="geometry" />
        </mxCell>
        <mxCell id="NFMwBLK6HkmFKyzKdS0n-32" value="" style="edgeStyle=orthogonalEdgeStyle;rounded=0;orthogonalLoop=1;jettySize=auto;html=1;" edge="1" parent="1" source="NFMwBLK6HkmFKyzKdS0n-19" target="NFMwBLK6HkmFKyzKdS0n-31">
          <mxGeometry relative="1" as="geometry" />
        </mxCell>
        <mxCell id="NFMwBLK6HkmFKyzKdS0n-19" value="case 2" style="rhombus;whiteSpace=wrap;html=1;" vertex="1" parent="1">
          <mxGeometry x="30" y="440" width="80" height="80" as="geometry" />
        </mxCell>
        <mxCell id="NFMwBLK6HkmFKyzKdS0n-21" value="" style="edgeStyle=orthogonalEdgeStyle;rounded=0;orthogonalLoop=1;jettySize=auto;html=1;" edge="1" parent="1" source="NFMwBLK6HkmFKyzKdS0n-22">
          <mxGeometry relative="1" as="geometry">
            <mxPoint x="330" y="480" as="targetPoint" />
          </mxGeometry>
        </mxCell>
        <mxCell id="NFMwBLK6HkmFKyzKdS0n-22" value="i&amp;lt;n" style="rhombus;whiteSpace=wrap;html=1;" vertex="1" parent="1">
          <mxGeometry x="190" y="440" width="80" height="80" as="geometry" />
        </mxCell>
        <mxCell id="NFMwBLK6HkmFKyzKdS0n-23" value="" style="edgeStyle=orthogonalEdgeStyle;rounded=0;orthogonalLoop=1;jettySize=auto;html=1;" edge="1" parent="1" source="NFMwBLK6HkmFKyzKdS0n-24">
          <mxGeometry relative="1" as="geometry">
            <mxPoint x="470" y="480" as="targetPoint" />
          </mxGeometry>
        </mxCell>
        <mxCell id="NFMwBLK6HkmFKyzKdS0n-24" value="j&amp;lt;m" style="rhombus;whiteSpace=wrap;html=1;" vertex="1" parent="1">
          <mxGeometry x="330" y="440" width="80" height="80" as="geometry" />
        </mxCell>
        <mxCell id="NFMwBLK6HkmFKyzKdS0n-25" value="" style="edgeStyle=orthogonalEdgeStyle;rounded=0;orthogonalLoop=1;jettySize=auto;html=1;" edge="1" parent="1" source="NFMwBLK6HkmFKyzKdS0n-26" target="NFMwBLK6HkmFKyzKdS0n-29">
          <mxGeometry relative="1" as="geometry" />
        </mxCell>
        <mxCell id="NFMwBLK6HkmFKyzKdS0n-26" value="output a[i][j]" style="shape=parallelogram;perimeter=parallelogramPerimeter;whiteSpace=wrap;html=1;fixedSize=1;" vertex="1" parent="1">
          <mxGeometry x="460" y="450" width="120" height="60" as="geometry" />
        </mxCell>
        <mxCell id="NFMwBLK6HkmFKyzKdS0n-27" style="edgeStyle=orthogonalEdgeStyle;rounded=0;orthogonalLoop=1;jettySize=auto;html=1;entryX=0.5;entryY=0;entryDx=0;entryDy=0;" edge="1" parent="1" source="NFMwBLK6HkmFKyzKdS0n-29" target="NFMwBLK6HkmFKyzKdS0n-22">
          <mxGeometry relative="1" as="geometry">
            <Array as="points">
              <mxPoint x="720" y="370" />
              <mxPoint x="230" y="370" />
            </Array>
          </mxGeometry>
        </mxCell>
        <mxCell id="NFMwBLK6HkmFKyzKdS0n-28" style="edgeStyle=orthogonalEdgeStyle;rounded=0;orthogonalLoop=1;jettySize=auto;html=1;entryX=0.5;entryY=1;entryDx=0;entryDy=0;" edge="1" parent="1" source="NFMwBLK6HkmFKyzKdS0n-29" target="NFMwBLK6HkmFKyzKdS0n-24">
          <mxGeometry relative="1" as="geometry">
            <Array as="points">
              <mxPoint x="720" y="560" />
              <mxPoint x="370" y="560" />
            </Array>
          </mxGeometry>
        </mxCell>
        <mxCell id="NFMwBLK6HkmFKyzKdS0n-173" style="edgeStyle=orthogonalEdgeStyle;rounded=0;orthogonalLoop=1;jettySize=auto;html=1;entryX=0.5;entryY=0;entryDx=0;entryDy=0;" edge="1" parent="1" source="NFMwBLK6HkmFKyzKdS0n-29" target="NFMwBLK6HkmFKyzKdS0n-172">
          <mxGeometry relative="1" as="geometry" />
        </mxCell>
        <mxCell id="NFMwBLK6HkmFKyzKdS0n-29" value="i++&lt;br&gt;j++" style="whiteSpace=wrap;html=1;" vertex="1" parent="1">
          <mxGeometry x="660" y="450" width="120" height="60" as="geometry" />
        </mxCell>
        <mxCell id="NFMwBLK6HkmFKyzKdS0n-42" value="" style="edgeStyle=orthogonalEdgeStyle;rounded=0;orthogonalLoop=1;jettySize=auto;html=1;" edge="1" parent="1" source="NFMwBLK6HkmFKyzKdS0n-31" target="NFMwBLK6HkmFKyzKdS0n-34">
          <mxGeometry relative="1" as="geometry" />
        </mxCell>
        <mxCell id="NFMwBLK6HkmFKyzKdS0n-68" value="" style="edgeStyle=orthogonalEdgeStyle;rounded=0;orthogonalLoop=1;jettySize=auto;html=1;" edge="1" parent="1" source="NFMwBLK6HkmFKyzKdS0n-31" target="NFMwBLK6HkmFKyzKdS0n-67">
          <mxGeometry relative="1" as="geometry" />
        </mxCell>
        <mxCell id="NFMwBLK6HkmFKyzKdS0n-31" value="case 3" style="rhombus;whiteSpace=wrap;html=1;" vertex="1" parent="1">
          <mxGeometry x="30" y="700" width="80" height="80" as="geometry" />
        </mxCell>
        <mxCell id="NFMwBLK6HkmFKyzKdS0n-33" value="" style="edgeStyle=orthogonalEdgeStyle;rounded=0;orthogonalLoop=1;jettySize=auto;html=1;" edge="1" parent="1" source="NFMwBLK6HkmFKyzKdS0n-34">
          <mxGeometry relative="1" as="geometry">
            <mxPoint x="310" y="740" as="targetPoint" />
          </mxGeometry>
        </mxCell>
        <mxCell id="NFMwBLK6HkmFKyzKdS0n-34" value="i&amp;lt;n" style="rhombus;whiteSpace=wrap;html=1;" vertex="1" parent="1">
          <mxGeometry x="170" y="700" width="80" height="80" as="geometry" />
        </mxCell>
        <mxCell id="NFMwBLK6HkmFKyzKdS0n-35" value="" style="edgeStyle=orthogonalEdgeStyle;rounded=0;orthogonalLoop=1;jettySize=auto;html=1;" edge="1" parent="1" source="NFMwBLK6HkmFKyzKdS0n-36" target="NFMwBLK6HkmFKyzKdS0n-43">
          <mxGeometry relative="1" as="geometry">
            <mxPoint x="450" y="740" as="targetPoint" />
          </mxGeometry>
        </mxCell>
        <mxCell id="NFMwBLK6HkmFKyzKdS0n-36" value="j&amp;lt;m" style="rhombus;whiteSpace=wrap;html=1;" vertex="1" parent="1">
          <mxGeometry x="310" y="700" width="80" height="80" as="geometry" />
        </mxCell>
        <mxCell id="NFMwBLK6HkmFKyzKdS0n-39" style="edgeStyle=orthogonalEdgeStyle;rounded=0;orthogonalLoop=1;jettySize=auto;html=1;entryX=0.5;entryY=0;entryDx=0;entryDy=0;" edge="1" parent="1" source="NFMwBLK6HkmFKyzKdS0n-41" target="NFMwBLK6HkmFKyzKdS0n-34">
          <mxGeometry relative="1" as="geometry">
            <Array as="points">
              <mxPoint x="970" y="630" />
              <mxPoint x="210" y="630" />
            </Array>
          </mxGeometry>
        </mxCell>
        <mxCell id="NFMwBLK6HkmFKyzKdS0n-40" style="edgeStyle=orthogonalEdgeStyle;rounded=0;orthogonalLoop=1;jettySize=auto;html=1;entryX=0.5;entryY=1;entryDx=0;entryDy=0;" edge="1" parent="1" source="NFMwBLK6HkmFKyzKdS0n-41" target="NFMwBLK6HkmFKyzKdS0n-36">
          <mxGeometry relative="1" as="geometry">
            <Array as="points">
              <mxPoint x="970" y="820" />
              <mxPoint x="350" y="820" />
            </Array>
          </mxGeometry>
        </mxCell>
        <mxCell id="NFMwBLK6HkmFKyzKdS0n-51" value="" style="edgeStyle=orthogonalEdgeStyle;rounded=0;orthogonalLoop=1;jettySize=auto;html=1;" edge="1" parent="1" source="NFMwBLK6HkmFKyzKdS0n-41" target="NFMwBLK6HkmFKyzKdS0n-50">
          <mxGeometry relative="1" as="geometry" />
        </mxCell>
        <mxCell id="NFMwBLK6HkmFKyzKdS0n-41" value="i++&lt;br&gt;j++" style="whiteSpace=wrap;html=1;" vertex="1" parent="1">
          <mxGeometry x="920" y="710" width="120" height="60" as="geometry" />
        </mxCell>
        <mxCell id="NFMwBLK6HkmFKyzKdS0n-47" value="" style="edgeStyle=orthogonalEdgeStyle;rounded=0;orthogonalLoop=1;jettySize=auto;html=1;" edge="1" parent="1" source="NFMwBLK6HkmFKyzKdS0n-43" target="NFMwBLK6HkmFKyzKdS0n-46">
          <mxGeometry relative="1" as="geometry" />
        </mxCell>
        <mxCell id="NFMwBLK6HkmFKyzKdS0n-43" value="i%2 != 0" style="rhombus;whiteSpace=wrap;html=1;" vertex="1" parent="1">
          <mxGeometry x="460" y="700" width="80" height="80" as="geometry" />
        </mxCell>
        <mxCell id="NFMwBLK6HkmFKyzKdS0n-49" value="" style="edgeStyle=orthogonalEdgeStyle;rounded=0;orthogonalLoop=1;jettySize=auto;html=1;" edge="1" parent="1" source="NFMwBLK6HkmFKyzKdS0n-45" target="NFMwBLK6HkmFKyzKdS0n-41">
          <mxGeometry relative="1" as="geometry" />
        </mxCell>
        <mxCell id="NFMwBLK6HkmFKyzKdS0n-45" value="output a[i][j]" style="shape=parallelogram;perimeter=parallelogramPerimeter;whiteSpace=wrap;html=1;fixedSize=1;" vertex="1" parent="1">
          <mxGeometry x="740" y="710" width="120" height="60" as="geometry" />
        </mxCell>
        <mxCell id="NFMwBLK6HkmFKyzKdS0n-48" value="" style="edgeStyle=orthogonalEdgeStyle;rounded=0;orthogonalLoop=1;jettySize=auto;html=1;" edge="1" parent="1" source="NFMwBLK6HkmFKyzKdS0n-46" target="NFMwBLK6HkmFKyzKdS0n-45">
          <mxGeometry relative="1" as="geometry" />
        </mxCell>
        <mxCell id="NFMwBLK6HkmFKyzKdS0n-46" value="sum +=a[i][j]" style="rounded=0;whiteSpace=wrap;html=1;" vertex="1" parent="1">
          <mxGeometry x="590" y="710" width="120" height="60" as="geometry" />
        </mxCell>
        <mxCell id="NFMwBLK6HkmFKyzKdS0n-175" style="edgeStyle=orthogonalEdgeStyle;rounded=0;orthogonalLoop=1;jettySize=auto;html=1;" edge="1" parent="1" source="NFMwBLK6HkmFKyzKdS0n-50">
          <mxGeometry relative="1" as="geometry">
            <mxPoint x="2190" y="740" as="targetPoint" />
          </mxGeometry>
        </mxCell>
        <mxCell id="NFMwBLK6HkmFKyzKdS0n-50" value="output sum" style="shape=parallelogram;perimeter=parallelogramPerimeter;whiteSpace=wrap;html=1;fixedSize=1;" vertex="1" parent="1">
          <mxGeometry x="1080" y="710" width="120" height="60" as="geometry" />
        </mxCell>
        <mxCell id="NFMwBLK6HkmFKyzKdS0n-52" value="" style="edgeStyle=orthogonalEdgeStyle;rounded=0;orthogonalLoop=1;jettySize=auto;html=1;" edge="1" parent="1" source="NFMwBLK6HkmFKyzKdS0n-53">
          <mxGeometry relative="1" as="geometry">
            <mxPoint x="310" y="990" as="targetPoint" />
          </mxGeometry>
        </mxCell>
        <mxCell id="NFMwBLK6HkmFKyzKdS0n-53" value="i&amp;lt;n" style="rhombus;whiteSpace=wrap;html=1;" vertex="1" parent="1">
          <mxGeometry x="170" y="950" width="80" height="80" as="geometry" />
        </mxCell>
        <mxCell id="NFMwBLK6HkmFKyzKdS0n-54" value="" style="edgeStyle=orthogonalEdgeStyle;rounded=0;orthogonalLoop=1;jettySize=auto;html=1;" edge="1" parent="1" source="NFMwBLK6HkmFKyzKdS0n-55">
          <mxGeometry relative="1" as="geometry">
            <mxPoint x="460" y="990" as="targetPoint" />
          </mxGeometry>
        </mxCell>
        <mxCell id="NFMwBLK6HkmFKyzKdS0n-55" value="j=1" style="rhombus;whiteSpace=wrap;html=1;" vertex="1" parent="1">
          <mxGeometry x="310" y="950" width="80" height="80" as="geometry" />
        </mxCell>
        <mxCell id="NFMwBLK6HkmFKyzKdS0n-56" style="edgeStyle=orthogonalEdgeStyle;rounded=0;orthogonalLoop=1;jettySize=auto;html=1;entryX=0.5;entryY=0;entryDx=0;entryDy=0;" edge="1" parent="1" source="NFMwBLK6HkmFKyzKdS0n-59" target="NFMwBLK6HkmFKyzKdS0n-53">
          <mxGeometry relative="1" as="geometry">
            <Array as="points">
              <mxPoint x="970" y="880" />
              <mxPoint x="210" y="880" />
            </Array>
          </mxGeometry>
        </mxCell>
        <mxCell id="NFMwBLK6HkmFKyzKdS0n-57" style="edgeStyle=orthogonalEdgeStyle;rounded=0;orthogonalLoop=1;jettySize=auto;html=1;entryX=0.5;entryY=1;entryDx=0;entryDy=0;" edge="1" parent="1" source="NFMwBLK6HkmFKyzKdS0n-59" target="NFMwBLK6HkmFKyzKdS0n-55">
          <mxGeometry relative="1" as="geometry">
            <Array as="points">
              <mxPoint x="970" y="1070" />
              <mxPoint x="350" y="1070" />
            </Array>
          </mxGeometry>
        </mxCell>
        <mxCell id="NFMwBLK6HkmFKyzKdS0n-58" value="" style="edgeStyle=orthogonalEdgeStyle;rounded=0;orthogonalLoop=1;jettySize=auto;html=1;" edge="1" parent="1" source="NFMwBLK6HkmFKyzKdS0n-59" target="NFMwBLK6HkmFKyzKdS0n-66">
          <mxGeometry relative="1" as="geometry" />
        </mxCell>
        <mxCell id="NFMwBLK6HkmFKyzKdS0n-59" value="i++" style="whiteSpace=wrap;html=1;" vertex="1" parent="1">
          <mxGeometry x="750" y="960" width="120" height="60" as="geometry" />
        </mxCell>
        <mxCell id="NFMwBLK6HkmFKyzKdS0n-60" value="" style="edgeStyle=orthogonalEdgeStyle;rounded=0;orthogonalLoop=1;jettySize=auto;html=1;" edge="1" parent="1" target="NFMwBLK6HkmFKyzKdS0n-65">
          <mxGeometry relative="1" as="geometry">
            <mxPoint x="540" y="990" as="sourcePoint" />
          </mxGeometry>
        </mxCell>
        <mxCell id="NFMwBLK6HkmFKyzKdS0n-64" value="" style="edgeStyle=orthogonalEdgeStyle;rounded=0;orthogonalLoop=1;jettySize=auto;html=1;" edge="1" parent="1" source="NFMwBLK6HkmFKyzKdS0n-65">
          <mxGeometry relative="1" as="geometry">
            <mxPoint x="750" y="990" as="targetPoint" />
          </mxGeometry>
        </mxCell>
        <mxCell id="NFMwBLK6HkmFKyzKdS0n-65" value="sum1 +=a[i][j]" style="rounded=0;whiteSpace=wrap;html=1;" vertex="1" parent="1">
          <mxGeometry x="460" y="960" width="120" height="60" as="geometry" />
        </mxCell>
        <mxCell id="NFMwBLK6HkmFKyzKdS0n-176" style="edgeStyle=orthogonalEdgeStyle;rounded=0;orthogonalLoop=1;jettySize=auto;html=1;" edge="1" parent="1" source="NFMwBLK6HkmFKyzKdS0n-66" target="NFMwBLK6HkmFKyzKdS0n-172">
          <mxGeometry relative="1" as="geometry" />
        </mxCell>
        <mxCell id="NFMwBLK6HkmFKyzKdS0n-66" value="output sum" style="shape=parallelogram;perimeter=parallelogramPerimeter;whiteSpace=wrap;html=1;fixedSize=1;" vertex="1" parent="1">
          <mxGeometry x="1070" y="880" width="120" height="60" as="geometry" />
        </mxCell>
        <mxCell id="NFMwBLK6HkmFKyzKdS0n-69" value="" style="edgeStyle=orthogonalEdgeStyle;rounded=0;orthogonalLoop=1;jettySize=auto;html=1;" edge="1" parent="1" source="NFMwBLK6HkmFKyzKdS0n-67" target="NFMwBLK6HkmFKyzKdS0n-53">
          <mxGeometry relative="1" as="geometry" />
        </mxCell>
        <mxCell id="NFMwBLK6HkmFKyzKdS0n-70" style="edgeStyle=orthogonalEdgeStyle;rounded=0;orthogonalLoop=1;jettySize=auto;html=1;entryX=0;entryY=0.5;entryDx=0;entryDy=0;" edge="1" parent="1" source="NFMwBLK6HkmFKyzKdS0n-67" target="NFMwBLK6HkmFKyzKdS0n-73">
          <mxGeometry relative="1" as="geometry">
            <mxPoint x="160" y="1150" as="targetPoint" />
            <Array as="points">
              <mxPoint x="70" y="1220" />
            </Array>
          </mxGeometry>
        </mxCell>
        <mxCell id="NFMwBLK6HkmFKyzKdS0n-84" style="edgeStyle=orthogonalEdgeStyle;rounded=0;orthogonalLoop=1;jettySize=auto;html=1;entryX=0;entryY=0.5;entryDx=0;entryDy=0;" edge="1" parent="1" source="NFMwBLK6HkmFKyzKdS0n-67" target="NFMwBLK6HkmFKyzKdS0n-85">
          <mxGeometry relative="1" as="geometry">
            <mxPoint x="10" y="1492.39990234375" as="targetPoint" />
            <Array as="points">
              <mxPoint x="10" y="990" />
              <mxPoint x="10" y="1470" />
            </Array>
          </mxGeometry>
        </mxCell>
        <mxCell id="NFMwBLK6HkmFKyzKdS0n-67" value="case 4" style="rhombus;whiteSpace=wrap;html=1;" vertex="1" parent="1">
          <mxGeometry x="30" y="950" width="80" height="80" as="geometry" />
        </mxCell>
        <mxCell id="NFMwBLK6HkmFKyzKdS0n-72" value="" style="edgeStyle=orthogonalEdgeStyle;rounded=0;orthogonalLoop=1;jettySize=auto;html=1;" edge="1" parent="1" source="NFMwBLK6HkmFKyzKdS0n-73">
          <mxGeometry relative="1" as="geometry">
            <mxPoint x="300" y="1220" as="targetPoint" />
          </mxGeometry>
        </mxCell>
        <mxCell id="NFMwBLK6HkmFKyzKdS0n-73" value="i&amp;lt;n" style="rhombus;whiteSpace=wrap;html=1;" vertex="1" parent="1">
          <mxGeometry x="160" y="1180" width="80" height="80" as="geometry" />
        </mxCell>
        <mxCell id="NFMwBLK6HkmFKyzKdS0n-74" value="" style="edgeStyle=orthogonalEdgeStyle;rounded=0;orthogonalLoop=1;jettySize=auto;html=1;" edge="1" parent="1" source="NFMwBLK6HkmFKyzKdS0n-75">
          <mxGeometry relative="1" as="geometry">
            <mxPoint x="450" y="1220" as="targetPoint" />
          </mxGeometry>
        </mxCell>
        <mxCell id="NFMwBLK6HkmFKyzKdS0n-75" value="j=m" style="rhombus;whiteSpace=wrap;html=1;" vertex="1" parent="1">
          <mxGeometry x="300" y="1180" width="80" height="80" as="geometry" />
        </mxCell>
        <mxCell id="NFMwBLK6HkmFKyzKdS0n-76" style="edgeStyle=orthogonalEdgeStyle;rounded=0;orthogonalLoop=1;jettySize=auto;html=1;entryX=0.5;entryY=0;entryDx=0;entryDy=0;" edge="1" parent="1" source="NFMwBLK6HkmFKyzKdS0n-79" target="NFMwBLK6HkmFKyzKdS0n-73">
          <mxGeometry relative="1" as="geometry">
            <Array as="points">
              <mxPoint x="960" y="1110" />
              <mxPoint x="200" y="1110" />
            </Array>
          </mxGeometry>
        </mxCell>
        <mxCell id="NFMwBLK6HkmFKyzKdS0n-77" style="edgeStyle=orthogonalEdgeStyle;rounded=0;orthogonalLoop=1;jettySize=auto;html=1;entryX=0.5;entryY=1;entryDx=0;entryDy=0;" edge="1" parent="1" source="NFMwBLK6HkmFKyzKdS0n-79" target="NFMwBLK6HkmFKyzKdS0n-75">
          <mxGeometry relative="1" as="geometry">
            <Array as="points">
              <mxPoint x="960" y="1300" />
              <mxPoint x="340" y="1300" />
            </Array>
          </mxGeometry>
        </mxCell>
        <mxCell id="NFMwBLK6HkmFKyzKdS0n-78" value="" style="edgeStyle=orthogonalEdgeStyle;rounded=0;orthogonalLoop=1;jettySize=auto;html=1;" edge="1" parent="1" source="NFMwBLK6HkmFKyzKdS0n-79" target="NFMwBLK6HkmFKyzKdS0n-83">
          <mxGeometry relative="1" as="geometry" />
        </mxCell>
        <mxCell id="NFMwBLK6HkmFKyzKdS0n-79" value="i++" style="whiteSpace=wrap;html=1;" vertex="1" parent="1">
          <mxGeometry x="740" y="1190" width="120" height="60" as="geometry" />
        </mxCell>
        <mxCell id="NFMwBLK6HkmFKyzKdS0n-80" value="" style="edgeStyle=orthogonalEdgeStyle;rounded=0;orthogonalLoop=1;jettySize=auto;html=1;" edge="1" parent="1" target="NFMwBLK6HkmFKyzKdS0n-82">
          <mxGeometry relative="1" as="geometry">
            <mxPoint x="530" y="1220" as="sourcePoint" />
          </mxGeometry>
        </mxCell>
        <mxCell id="NFMwBLK6HkmFKyzKdS0n-81" value="" style="edgeStyle=orthogonalEdgeStyle;rounded=0;orthogonalLoop=1;jettySize=auto;html=1;" edge="1" parent="1" source="NFMwBLK6HkmFKyzKdS0n-82">
          <mxGeometry relative="1" as="geometry">
            <mxPoint x="740" y="1220" as="targetPoint" />
          </mxGeometry>
        </mxCell>
        <mxCell id="NFMwBLK6HkmFKyzKdS0n-82" value="sum2 +=a[i][j]" style="rounded=0;whiteSpace=wrap;html=1;" vertex="1" parent="1">
          <mxGeometry x="450" y="1190" width="120" height="60" as="geometry" />
        </mxCell>
        <mxCell id="NFMwBLK6HkmFKyzKdS0n-177" style="edgeStyle=orthogonalEdgeStyle;rounded=0;orthogonalLoop=1;jettySize=auto;html=1;entryX=0.5;entryY=1;entryDx=0;entryDy=0;" edge="1" parent="1" source="NFMwBLK6HkmFKyzKdS0n-83" target="NFMwBLK6HkmFKyzKdS0n-172">
          <mxGeometry relative="1" as="geometry" />
        </mxCell>
        <mxCell id="NFMwBLK6HkmFKyzKdS0n-83" value="outpu2 sum" style="shape=parallelogram;perimeter=parallelogramPerimeter;whiteSpace=wrap;html=1;fixedSize=1;" vertex="1" parent="1">
          <mxGeometry x="1060" y="1110" width="120" height="60" as="geometry" />
        </mxCell>
        <mxCell id="NFMwBLK6HkmFKyzKdS0n-98" value="" style="edgeStyle=orthogonalEdgeStyle;rounded=0;orthogonalLoop=1;jettySize=auto;html=1;" edge="1" parent="1" source="NFMwBLK6HkmFKyzKdS0n-85" target="NFMwBLK6HkmFKyzKdS0n-87">
          <mxGeometry relative="1" as="geometry" />
        </mxCell>
        <mxCell id="NFMwBLK6HkmFKyzKdS0n-117" style="edgeStyle=orthogonalEdgeStyle;rounded=0;orthogonalLoop=1;jettySize=auto;html=1;entryX=0.5;entryY=0;entryDx=0;entryDy=0;" edge="1" parent="1" source="NFMwBLK6HkmFKyzKdS0n-85" target="NFMwBLK6HkmFKyzKdS0n-116">
          <mxGeometry relative="1" as="geometry" />
        </mxCell>
        <mxCell id="NFMwBLK6HkmFKyzKdS0n-85" value="case 7" style="rhombus;whiteSpace=wrap;html=1;" vertex="1" parent="1">
          <mxGeometry x="40" y="1430" width="80" height="80" as="geometry" />
        </mxCell>
        <mxCell id="NFMwBLK6HkmFKyzKdS0n-86" value="" style="edgeStyle=orthogonalEdgeStyle;rounded=0;orthogonalLoop=1;jettySize=auto;html=1;" edge="1" parent="1" source="NFMwBLK6HkmFKyzKdS0n-87">
          <mxGeometry relative="1" as="geometry">
            <mxPoint x="300" y="1470" as="targetPoint" />
          </mxGeometry>
        </mxCell>
        <mxCell id="NFMwBLK6HkmFKyzKdS0n-87" value="i&amp;lt;n" style="rhombus;whiteSpace=wrap;html=1;" vertex="1" parent="1">
          <mxGeometry x="160" y="1430" width="80" height="80" as="geometry" />
        </mxCell>
        <mxCell id="NFMwBLK6HkmFKyzKdS0n-88" value="" style="edgeStyle=orthogonalEdgeStyle;rounded=0;orthogonalLoop=1;jettySize=auto;html=1;" edge="1" parent="1" source="NFMwBLK6HkmFKyzKdS0n-89">
          <mxGeometry relative="1" as="geometry">
            <mxPoint x="450" y="1470" as="targetPoint" />
          </mxGeometry>
        </mxCell>
        <mxCell id="NFMwBLK6HkmFKyzKdS0n-89" value="j&amp;lt;m" style="rhombus;whiteSpace=wrap;html=1;" vertex="1" parent="1">
          <mxGeometry x="300" y="1430" width="80" height="80" as="geometry" />
        </mxCell>
        <mxCell id="NFMwBLK6HkmFKyzKdS0n-90" style="edgeStyle=orthogonalEdgeStyle;rounded=0;orthogonalLoop=1;jettySize=auto;html=1;entryX=0.5;entryY=0;entryDx=0;entryDy=0;" edge="1" parent="1" source="NFMwBLK6HkmFKyzKdS0n-93" target="NFMwBLK6HkmFKyzKdS0n-87">
          <mxGeometry relative="1" as="geometry">
            <Array as="points">
              <mxPoint x="960" y="1360" />
              <mxPoint x="200" y="1360" />
            </Array>
          </mxGeometry>
        </mxCell>
        <mxCell id="NFMwBLK6HkmFKyzKdS0n-91" style="edgeStyle=orthogonalEdgeStyle;rounded=0;orthogonalLoop=1;jettySize=auto;html=1;entryX=0.5;entryY=1;entryDx=0;entryDy=0;" edge="1" parent="1" source="NFMwBLK6HkmFKyzKdS0n-93" target="NFMwBLK6HkmFKyzKdS0n-89">
          <mxGeometry relative="1" as="geometry">
            <Array as="points">
              <mxPoint x="960" y="1550" />
              <mxPoint x="340" y="1550" />
            </Array>
          </mxGeometry>
        </mxCell>
        <mxCell id="NFMwBLK6HkmFKyzKdS0n-92" value="" style="edgeStyle=orthogonalEdgeStyle;rounded=0;orthogonalLoop=1;jettySize=auto;html=1;" edge="1" parent="1" source="NFMwBLK6HkmFKyzKdS0n-93" target="NFMwBLK6HkmFKyzKdS0n-97">
          <mxGeometry relative="1" as="geometry" />
        </mxCell>
        <mxCell id="NFMwBLK6HkmFKyzKdS0n-93" value="i++&lt;br&gt;i++" style="whiteSpace=wrap;html=1;" vertex="1" parent="1">
          <mxGeometry x="740" y="1440" width="120" height="60" as="geometry" />
        </mxCell>
        <mxCell id="NFMwBLK6HkmFKyzKdS0n-94" value="" style="edgeStyle=orthogonalEdgeStyle;rounded=0;orthogonalLoop=1;jettySize=auto;html=1;" edge="1" parent="1" target="NFMwBLK6HkmFKyzKdS0n-96">
          <mxGeometry relative="1" as="geometry">
            <mxPoint x="530" y="1470" as="sourcePoint" />
          </mxGeometry>
        </mxCell>
        <mxCell id="NFMwBLK6HkmFKyzKdS0n-95" value="" style="edgeStyle=orthogonalEdgeStyle;rounded=0;orthogonalLoop=1;jettySize=auto;html=1;" edge="1" parent="1" source="NFMwBLK6HkmFKyzKdS0n-96">
          <mxGeometry relative="1" as="geometry">
            <mxPoint x="740" y="1470" as="targetPoint" />
          </mxGeometry>
        </mxCell>
        <mxCell id="NFMwBLK6HkmFKyzKdS0n-96" value="sum +=a[i][j]" style="rounded=0;whiteSpace=wrap;html=1;" vertex="1" parent="1">
          <mxGeometry x="450" y="1440" width="120" height="60" as="geometry" />
        </mxCell>
        <mxCell id="NFMwBLK6HkmFKyzKdS0n-97" value="trung binh = sum /(m*n)" style="shape=parallelogram;perimeter=parallelogramPerimeter;whiteSpace=wrap;html=1;fixedSize=1;" vertex="1" parent="1">
          <mxGeometry x="1080" y="1440" width="220" height="60" as="geometry" />
        </mxCell>
        <mxCell id="NFMwBLK6HkmFKyzKdS0n-112" value="" style="edgeStyle=orthogonalEdgeStyle;rounded=0;orthogonalLoop=1;jettySize=auto;html=1;" edge="1" parent="1" source="NFMwBLK6HkmFKyzKdS0n-99" target="NFMwBLK6HkmFKyzKdS0n-111">
          <mxGeometry relative="1" as="geometry" />
        </mxCell>
        <mxCell id="NFMwBLK6HkmFKyzKdS0n-99" value="a[i][j] = trung binh" style="rhombus;whiteSpace=wrap;html=1;" vertex="1" parent="1">
          <mxGeometry x="1610" y="1430" width="140" height="80" as="geometry" />
        </mxCell>
        <mxCell id="NFMwBLK6HkmFKyzKdS0n-100" value="" style="edgeStyle=orthogonalEdgeStyle;rounded=0;orthogonalLoop=1;jettySize=auto;html=1;" edge="1" parent="1" target="NFMwBLK6HkmFKyzKdS0n-102">
          <mxGeometry relative="1" as="geometry">
            <mxPoint x="1285" y="1470" as="sourcePoint" />
          </mxGeometry>
        </mxCell>
        <mxCell id="NFMwBLK6HkmFKyzKdS0n-101" value="" style="edgeStyle=orthogonalEdgeStyle;rounded=0;orthogonalLoop=1;jettySize=auto;html=1;" edge="1" parent="1" source="NFMwBLK6HkmFKyzKdS0n-102">
          <mxGeometry relative="1" as="geometry">
            <mxPoint x="1465" y="1470" as="targetPoint" />
          </mxGeometry>
        </mxCell>
        <mxCell id="NFMwBLK6HkmFKyzKdS0n-102" value="i&amp;lt;n" style="rhombus;whiteSpace=wrap;html=1;" vertex="1" parent="1">
          <mxGeometry x="1325" y="1430" width="80" height="80" as="geometry" />
        </mxCell>
        <mxCell id="NFMwBLK6HkmFKyzKdS0n-103" value="" style="edgeStyle=orthogonalEdgeStyle;rounded=0;orthogonalLoop=1;jettySize=auto;html=1;" edge="1" parent="1" source="NFMwBLK6HkmFKyzKdS0n-104">
          <mxGeometry relative="1" as="geometry">
            <mxPoint x="1615" y="1470" as="targetPoint" />
          </mxGeometry>
        </mxCell>
        <mxCell id="NFMwBLK6HkmFKyzKdS0n-104" value="j&amp;lt;m" style="rhombus;whiteSpace=wrap;html=1;" vertex="1" parent="1">
          <mxGeometry x="1465" y="1430" width="80" height="80" as="geometry" />
        </mxCell>
        <mxCell id="NFMwBLK6HkmFKyzKdS0n-105" style="edgeStyle=orthogonalEdgeStyle;rounded=0;orthogonalLoop=1;jettySize=auto;html=1;entryX=0.5;entryY=0;entryDx=0;entryDy=0;" edge="1" parent="1" source="NFMwBLK6HkmFKyzKdS0n-107" target="NFMwBLK6HkmFKyzKdS0n-102">
          <mxGeometry relative="1" as="geometry">
            <Array as="points">
              <mxPoint x="2040" y="1360" />
              <mxPoint x="1365" y="1360" />
            </Array>
          </mxGeometry>
        </mxCell>
        <mxCell id="NFMwBLK6HkmFKyzKdS0n-106" style="edgeStyle=orthogonalEdgeStyle;rounded=0;orthogonalLoop=1;jettySize=auto;html=1;entryX=0.5;entryY=1;entryDx=0;entryDy=0;" edge="1" parent="1" source="NFMwBLK6HkmFKyzKdS0n-107" target="NFMwBLK6HkmFKyzKdS0n-104">
          <mxGeometry relative="1" as="geometry">
            <Array as="points">
              <mxPoint x="2040" y="1550" />
              <mxPoint x="1505" y="1550" />
            </Array>
          </mxGeometry>
        </mxCell>
        <mxCell id="NFMwBLK6HkmFKyzKdS0n-115" style="edgeStyle=orthogonalEdgeStyle;rounded=0;orthogonalLoop=1;jettySize=auto;html=1;" edge="1" parent="1" source="NFMwBLK6HkmFKyzKdS0n-107" target="NFMwBLK6HkmFKyzKdS0n-114">
          <mxGeometry relative="1" as="geometry" />
        </mxCell>
        <mxCell id="NFMwBLK6HkmFKyzKdS0n-107" value="i++&lt;br&gt;i++" style="whiteSpace=wrap;html=1;" vertex="1" parent="1">
          <mxGeometry x="1970" y="1440" width="120" height="60" as="geometry" />
        </mxCell>
        <mxCell id="NFMwBLK6HkmFKyzKdS0n-113" value="" style="edgeStyle=orthogonalEdgeStyle;rounded=0;orthogonalLoop=1;jettySize=auto;html=1;" edge="1" parent="1" source="NFMwBLK6HkmFKyzKdS0n-111" target="NFMwBLK6HkmFKyzKdS0n-107">
          <mxGeometry relative="1" as="geometry" />
        </mxCell>
        <mxCell id="NFMwBLK6HkmFKyzKdS0n-111" value="count++" style="rounded=0;whiteSpace=wrap;html=1;" vertex="1" parent="1">
          <mxGeometry x="1790" y="1440" width="120" height="60" as="geometry" />
        </mxCell>
        <mxCell id="NFMwBLK6HkmFKyzKdS0n-178" style="edgeStyle=orthogonalEdgeStyle;rounded=0;orthogonalLoop=1;jettySize=auto;html=1;" edge="1" parent="1" source="NFMwBLK6HkmFKyzKdS0n-114">
          <mxGeometry relative="1" as="geometry">
            <mxPoint x="2180" y="1140" as="targetPoint" />
          </mxGeometry>
        </mxCell>
        <mxCell id="NFMwBLK6HkmFKyzKdS0n-114" value="output count" style="shape=parallelogram;perimeter=parallelogramPerimeter;whiteSpace=wrap;html=1;fixedSize=1;" vertex="1" parent="1">
          <mxGeometry x="2180" y="1440" width="120" height="60" as="geometry" />
        </mxCell>
        <mxCell id="NFMwBLK6HkmFKyzKdS0n-130" value="" style="edgeStyle=orthogonalEdgeStyle;rounded=0;orthogonalLoop=1;jettySize=auto;html=1;" edge="1" parent="1" source="NFMwBLK6HkmFKyzKdS0n-116" target="NFMwBLK6HkmFKyzKdS0n-129">
          <mxGeometry relative="1" as="geometry" />
        </mxCell>
        <mxCell id="NFMwBLK6HkmFKyzKdS0n-147" value="" style="edgeStyle=orthogonalEdgeStyle;rounded=0;orthogonalLoop=1;jettySize=auto;html=1;" edge="1" parent="1" source="NFMwBLK6HkmFKyzKdS0n-116" target="NFMwBLK6HkmFKyzKdS0n-146">
          <mxGeometry relative="1" as="geometry" />
        </mxCell>
        <mxCell id="NFMwBLK6HkmFKyzKdS0n-116" value="case 6" style="rhombus;whiteSpace=wrap;html=1;" vertex="1" parent="1">
          <mxGeometry x="40" y="1650" width="80" height="80" as="geometry" />
        </mxCell>
        <mxCell id="NFMwBLK6HkmFKyzKdS0n-118" value="" style="edgeStyle=orthogonalEdgeStyle;rounded=0;orthogonalLoop=1;jettySize=auto;html=1;" edge="1" parent="1" source="NFMwBLK6HkmFKyzKdS0n-119">
          <mxGeometry relative="1" as="geometry">
            <mxPoint x="470" y="1690" as="targetPoint" />
          </mxGeometry>
        </mxCell>
        <mxCell id="NFMwBLK6HkmFKyzKdS0n-119" value="i&amp;lt;n" style="rhombus;whiteSpace=wrap;html=1;" vertex="1" parent="1">
          <mxGeometry x="330" y="1650" width="80" height="80" as="geometry" />
        </mxCell>
        <mxCell id="NFMwBLK6HkmFKyzKdS0n-120" value="" style="edgeStyle=orthogonalEdgeStyle;rounded=0;orthogonalLoop=1;jettySize=auto;html=1;" edge="1" parent="1" source="NFMwBLK6HkmFKyzKdS0n-121" target="NFMwBLK6HkmFKyzKdS0n-132">
          <mxGeometry relative="1" as="geometry">
            <mxPoint x="620" y="1690" as="targetPoint" />
          </mxGeometry>
        </mxCell>
        <mxCell id="NFMwBLK6HkmFKyzKdS0n-138" style="edgeStyle=orthogonalEdgeStyle;rounded=0;orthogonalLoop=1;jettySize=auto;html=1;entryX=0;entryY=0.5;entryDx=0;entryDy=0;" edge="1" parent="1" source="NFMwBLK6HkmFKyzKdS0n-121" target="NFMwBLK6HkmFKyzKdS0n-136">
          <mxGeometry relative="1" as="geometry" />
        </mxCell>
        <mxCell id="NFMwBLK6HkmFKyzKdS0n-121" value="j=m" style="rhombus;whiteSpace=wrap;html=1;" vertex="1" parent="1">
          <mxGeometry x="470" y="1650" width="80" height="80" as="geometry" />
        </mxCell>
        <mxCell id="NFMwBLK6HkmFKyzKdS0n-122" style="edgeStyle=orthogonalEdgeStyle;rounded=0;orthogonalLoop=1;jettySize=auto;html=1;entryX=0.5;entryY=0;entryDx=0;entryDy=0;" edge="1" parent="1" source="NFMwBLK6HkmFKyzKdS0n-124" target="NFMwBLK6HkmFKyzKdS0n-119">
          <mxGeometry relative="1" as="geometry">
            <Array as="points">
              <mxPoint x="1130" y="1580" />
              <mxPoint x="370" y="1580" />
            </Array>
          </mxGeometry>
        </mxCell>
        <mxCell id="NFMwBLK6HkmFKyzKdS0n-123" style="edgeStyle=orthogonalEdgeStyle;rounded=0;orthogonalLoop=1;jettySize=auto;html=1;entryX=0.5;entryY=1;entryDx=0;entryDy=0;" edge="1" parent="1" source="NFMwBLK6HkmFKyzKdS0n-124" target="NFMwBLK6HkmFKyzKdS0n-121">
          <mxGeometry relative="1" as="geometry">
            <Array as="points">
              <mxPoint x="1130" y="1770" />
              <mxPoint x="510" y="1770" />
            </Array>
          </mxGeometry>
        </mxCell>
        <mxCell id="NFMwBLK6HkmFKyzKdS0n-145" value="" style="edgeStyle=orthogonalEdgeStyle;rounded=0;orthogonalLoop=1;jettySize=auto;html=1;" edge="1" parent="1" source="NFMwBLK6HkmFKyzKdS0n-124" target="NFMwBLK6HkmFKyzKdS0n-144">
          <mxGeometry relative="1" as="geometry" />
        </mxCell>
        <mxCell id="NFMwBLK6HkmFKyzKdS0n-124" value="i++" style="whiteSpace=wrap;html=1;" vertex="1" parent="1">
          <mxGeometry x="1080" y="1660" width="120" height="60" as="geometry" />
        </mxCell>
        <mxCell id="NFMwBLK6HkmFKyzKdS0n-131" value="" style="edgeStyle=orthogonalEdgeStyle;rounded=0;orthogonalLoop=1;jettySize=auto;html=1;" edge="1" parent="1" source="NFMwBLK6HkmFKyzKdS0n-129" target="NFMwBLK6HkmFKyzKdS0n-119">
          <mxGeometry relative="1" as="geometry" />
        </mxCell>
        <mxCell id="NFMwBLK6HkmFKyzKdS0n-129" value="max = a[0][0]&lt;br&gt;min=[0][0]" style="rounded=0;whiteSpace=wrap;html=1;" vertex="1" parent="1">
          <mxGeometry x="160" y="1660" width="120" height="60" as="geometry" />
        </mxCell>
        <mxCell id="NFMwBLK6HkmFKyzKdS0n-134" value="" style="edgeStyle=orthogonalEdgeStyle;rounded=0;orthogonalLoop=1;jettySize=auto;html=1;" edge="1" parent="1" source="NFMwBLK6HkmFKyzKdS0n-132" target="NFMwBLK6HkmFKyzKdS0n-133">
          <mxGeometry relative="1" as="geometry" />
        </mxCell>
        <mxCell id="NFMwBLK6HkmFKyzKdS0n-132" value="max &amp;lt;a[i][j]" style="rhombus;whiteSpace=wrap;html=1;" vertex="1" parent="1">
          <mxGeometry x="620" y="1590" width="80" height="80" as="geometry" />
        </mxCell>
        <mxCell id="NFMwBLK6HkmFKyzKdS0n-139" style="edgeStyle=orthogonalEdgeStyle;rounded=0;orthogonalLoop=1;jettySize=auto;html=1;entryX=0;entryY=0.5;entryDx=0;entryDy=0;" edge="1" parent="1" source="NFMwBLK6HkmFKyzKdS0n-133" target="NFMwBLK6HkmFKyzKdS0n-124">
          <mxGeometry relative="1" as="geometry" />
        </mxCell>
        <mxCell id="NFMwBLK6HkmFKyzKdS0n-133" value="max = a[i][j]" style="whiteSpace=wrap;html=1;" vertex="1" parent="1">
          <mxGeometry x="760" y="1600" width="120" height="60" as="geometry" />
        </mxCell>
        <mxCell id="NFMwBLK6HkmFKyzKdS0n-135" value="" style="edgeStyle=orthogonalEdgeStyle;rounded=0;orthogonalLoop=1;jettySize=auto;html=1;" edge="1" parent="1" source="NFMwBLK6HkmFKyzKdS0n-136" target="NFMwBLK6HkmFKyzKdS0n-137">
          <mxGeometry relative="1" as="geometry" />
        </mxCell>
        <mxCell id="NFMwBLK6HkmFKyzKdS0n-136" value="min &amp;gt;a[i][j]" style="rhombus;whiteSpace=wrap;html=1;" vertex="1" parent="1">
          <mxGeometry x="620" y="1680" width="80" height="80" as="geometry" />
        </mxCell>
        <mxCell id="NFMwBLK6HkmFKyzKdS0n-140" style="edgeStyle=orthogonalEdgeStyle;rounded=0;orthogonalLoop=1;jettySize=auto;html=1;entryX=0;entryY=0.5;entryDx=0;entryDy=0;" edge="1" parent="1" source="NFMwBLK6HkmFKyzKdS0n-137" target="NFMwBLK6HkmFKyzKdS0n-124">
          <mxGeometry relative="1" as="geometry" />
        </mxCell>
        <mxCell id="NFMwBLK6HkmFKyzKdS0n-137" value="min = a[i][j]" style="whiteSpace=wrap;html=1;" vertex="1" parent="1">
          <mxGeometry x="760" y="1690" width="120" height="60" as="geometry" />
        </mxCell>
        <mxCell id="NFMwBLK6HkmFKyzKdS0n-179" style="edgeStyle=orthogonalEdgeStyle;rounded=0;orthogonalLoop=1;jettySize=auto;html=1;entryX=0.5;entryY=1;entryDx=0;entryDy=0;" edge="1" parent="1" source="NFMwBLK6HkmFKyzKdS0n-144" target="NFMwBLK6HkmFKyzKdS0n-114">
          <mxGeometry relative="1" as="geometry" />
        </mxCell>
        <mxCell id="NFMwBLK6HkmFKyzKdS0n-144" value="output max , min" style="shape=parallelogram;perimeter=parallelogramPerimeter;whiteSpace=wrap;html=1;fixedSize=1;" vertex="1" parent="1">
          <mxGeometry x="1280" y="1660" width="120" height="60" as="geometry" />
        </mxCell>
        <mxCell id="NFMwBLK6HkmFKyzKdS0n-158" value="" style="edgeStyle=orthogonalEdgeStyle;rounded=0;orthogonalLoop=1;jettySize=auto;html=1;" edge="1" parent="1" source="NFMwBLK6HkmFKyzKdS0n-146" target="NFMwBLK6HkmFKyzKdS0n-149">
          <mxGeometry relative="1" as="geometry" />
        </mxCell>
        <mxCell id="NFMwBLK6HkmFKyzKdS0n-169" value="" style="edgeStyle=orthogonalEdgeStyle;rounded=0;orthogonalLoop=1;jettySize=auto;html=1;" edge="1" parent="1" source="NFMwBLK6HkmFKyzKdS0n-146" target="NFMwBLK6HkmFKyzKdS0n-168">
          <mxGeometry relative="1" as="geometry" />
        </mxCell>
        <mxCell id="NFMwBLK6HkmFKyzKdS0n-146" value="case 8" style="rhombus;whiteSpace=wrap;html=1;" vertex="1" parent="1">
          <mxGeometry x="40" y="1900" width="80" height="80" as="geometry" />
        </mxCell>
        <mxCell id="NFMwBLK6HkmFKyzKdS0n-148" value="" style="edgeStyle=orthogonalEdgeStyle;rounded=0;orthogonalLoop=1;jettySize=auto;html=1;" edge="1" parent="1" source="NFMwBLK6HkmFKyzKdS0n-149">
          <mxGeometry relative="1" as="geometry">
            <mxPoint x="300" y="1940" as="targetPoint" />
          </mxGeometry>
        </mxCell>
        <mxCell id="NFMwBLK6HkmFKyzKdS0n-149" value="i&amp;lt;n" style="rhombus;whiteSpace=wrap;html=1;" vertex="1" parent="1">
          <mxGeometry x="160" y="1900" width="80" height="80" as="geometry" />
        </mxCell>
        <mxCell id="NFMwBLK6HkmFKyzKdS0n-150" value="" style="edgeStyle=orthogonalEdgeStyle;rounded=0;orthogonalLoop=1;jettySize=auto;html=1;" edge="1" parent="1" source="NFMwBLK6HkmFKyzKdS0n-151">
          <mxGeometry relative="1" as="geometry">
            <mxPoint x="450" y="1940" as="targetPoint" />
          </mxGeometry>
        </mxCell>
        <mxCell id="NFMwBLK6HkmFKyzKdS0n-151" value="j=m" style="rhombus;whiteSpace=wrap;html=1;" vertex="1" parent="1">
          <mxGeometry x="300" y="1900" width="80" height="80" as="geometry" />
        </mxCell>
        <mxCell id="NFMwBLK6HkmFKyzKdS0n-152" style="edgeStyle=orthogonalEdgeStyle;rounded=0;orthogonalLoop=1;jettySize=auto;html=1;entryX=0.5;entryY=0;entryDx=0;entryDy=0;exitX=0.5;exitY=0;exitDx=0;exitDy=0;" edge="1" parent="1" source="NFMwBLK6HkmFKyzKdS0n-164" target="NFMwBLK6HkmFKyzKdS0n-149">
          <mxGeometry relative="1" as="geometry">
            <Array as="points">
              <mxPoint x="1010" y="1830" />
              <mxPoint x="200" y="1830" />
            </Array>
            <mxPoint x="960" y="1940" as="sourcePoint" />
          </mxGeometry>
        </mxCell>
        <mxCell id="NFMwBLK6HkmFKyzKdS0n-153" style="edgeStyle=orthogonalEdgeStyle;rounded=0;orthogonalLoop=1;jettySize=auto;html=1;entryX=0.5;entryY=1;entryDx=0;entryDy=0;" edge="1" parent="1" target="NFMwBLK6HkmFKyzKdS0n-151">
          <mxGeometry relative="1" as="geometry">
            <Array as="points">
              <mxPoint x="700" y="1940" />
              <mxPoint x="700" y="2020" />
              <mxPoint x="340" y="2020" />
            </Array>
            <mxPoint x="700" y="1980" as="sourcePoint" />
          </mxGeometry>
        </mxCell>
        <mxCell id="NFMwBLK6HkmFKyzKdS0n-161" value="" style="edgeStyle=orthogonalEdgeStyle;rounded=0;orthogonalLoop=1;jettySize=auto;html=1;" edge="1" parent="1" source="NFMwBLK6HkmFKyzKdS0n-159" target="NFMwBLK6HkmFKyzKdS0n-160">
          <mxGeometry relative="1" as="geometry" />
        </mxCell>
        <mxCell id="NFMwBLK6HkmFKyzKdS0n-159" value="sum += a[i][j]" style="rounded=0;whiteSpace=wrap;html=1;" vertex="1" parent="1">
          <mxGeometry x="450" y="1910" width="120" height="60" as="geometry" />
        </mxCell>
        <mxCell id="NFMwBLK6HkmFKyzKdS0n-163" value="" style="edgeStyle=orthogonalEdgeStyle;rounded=0;orthogonalLoop=1;jettySize=auto;html=1;" edge="1" parent="1" source="NFMwBLK6HkmFKyzKdS0n-160" target="NFMwBLK6HkmFKyzKdS0n-162">
          <mxGeometry relative="1" as="geometry" />
        </mxCell>
        <mxCell id="NFMwBLK6HkmFKyzKdS0n-160" value="j++" style="whiteSpace=wrap;html=1;rounded=0;" vertex="1" parent="1">
          <mxGeometry x="650" y="1910" width="120" height="60" as="geometry" />
        </mxCell>
        <mxCell id="NFMwBLK6HkmFKyzKdS0n-165" value="" style="edgeStyle=orthogonalEdgeStyle;rounded=0;orthogonalLoop=1;jettySize=auto;html=1;" edge="1" parent="1" source="NFMwBLK6HkmFKyzKdS0n-162" target="NFMwBLK6HkmFKyzKdS0n-164">
          <mxGeometry relative="1" as="geometry" />
        </mxCell>
        <mxCell id="NFMwBLK6HkmFKyzKdS0n-162" value="max &amp;lt; sum" style="rhombus;whiteSpace=wrap;html=1;" vertex="1" parent="1">
          <mxGeometry x="810" y="1900" width="80" height="80" as="geometry" />
        </mxCell>
        <mxCell id="NFMwBLK6HkmFKyzKdS0n-167" value="" style="edgeStyle=orthogonalEdgeStyle;rounded=0;orthogonalLoop=1;jettySize=auto;html=1;" edge="1" parent="1" source="NFMwBLK6HkmFKyzKdS0n-164" target="NFMwBLK6HkmFKyzKdS0n-166">
          <mxGeometry relative="1" as="geometry" />
        </mxCell>
        <mxCell id="NFMwBLK6HkmFKyzKdS0n-164" value="max =sum&lt;br&gt;temp = i&lt;br&gt;sum = 0&lt;br&gt;i++" style="whiteSpace=wrap;html=1;" vertex="1" parent="1">
          <mxGeometry x="950" y="1910" width="190" height="100" as="geometry" />
        </mxCell>
        <mxCell id="NFMwBLK6HkmFKyzKdS0n-180" style="edgeStyle=orthogonalEdgeStyle;rounded=0;orthogonalLoop=1;jettySize=auto;html=1;" edge="1" parent="1" source="NFMwBLK6HkmFKyzKdS0n-166">
          <mxGeometry relative="1" as="geometry">
            <mxPoint x="2240" y="1680" as="targetPoint" />
          </mxGeometry>
        </mxCell>
        <mxCell id="NFMwBLK6HkmFKyzKdS0n-166" value="output temp" style="shape=parallelogram;perimeter=parallelogramPerimeter;whiteSpace=wrap;html=1;fixedSize=1;" vertex="1" parent="1">
          <mxGeometry x="1255" y="1930" width="120" height="60" as="geometry" />
        </mxCell>
        <mxCell id="NFMwBLK6HkmFKyzKdS0n-171" value="" style="edgeStyle=orthogonalEdgeStyle;rounded=0;orthogonalLoop=1;jettySize=auto;html=1;" edge="1" parent="1" source="NFMwBLK6HkmFKyzKdS0n-168" target="NFMwBLK6HkmFKyzKdS0n-170">
          <mxGeometry relative="1" as="geometry" />
        </mxCell>
        <mxCell id="NFMwBLK6HkmFKyzKdS0n-168" value="case 9" style="rhombus;whiteSpace=wrap;html=1;" vertex="1" parent="1">
          <mxGeometry x="40" y="2080" width="80" height="80" as="geometry" />
        </mxCell>
        <mxCell id="NFMwBLK6HkmFKyzKdS0n-170" value="end" style="shape=parallelogram;perimeter=parallelogramPerimeter;whiteSpace=wrap;html=1;fixedSize=1;" vertex="1" parent="1">
          <mxGeometry x="180" y="2090" width="120" height="60" as="geometry" />
        </mxCell>
        <mxCell id="NFMwBLK6HkmFKyzKdS0n-172" value="end" style="ellipse;whiteSpace=wrap;html=1;" vertex="1" parent="1">
          <mxGeometry x="2125" y="830" width="120" height="80" as="geometry" />
        </mxCell>
      </root>
    </mxGraphModel>
  </diagram>
</mxfile>
